<svg width="181" height="32" viewBox="0 0 181 32" fill="none" xmlns="http://www.w3.org/2000/svg">
<path d="M35.26 23V10.04H43.18V12.488H37.708V15.296H42.1V17.744H37.708V23H35.26ZM44.9849 11.93V9.77H47.4329V11.93H44.9849ZM44.9849 23V13.28H47.4329V23H44.9849ZM55.9631 23C55.2911 23.126 54.6311 23.18 53.9831 23.162C53.3411 23.15 52.7651 23.039 52.2551 22.829C51.7511 22.613 51.3671 22.268 51.1031 21.794C50.8631 21.35 50.7371 20.9 50.7251 20.444C50.7131 19.982 50.7071 19.46 50.7071 18.878V10.58H53.1551V18.734C53.1551 19.112 53.1581 19.454 53.1641 19.76C53.1761 20.06 53.2391 20.3 53.3531 20.48C53.5691 20.822 53.9141 21.008 54.3881 21.038C54.8621 21.068 55.3871 21.044 55.9631 20.966V23ZM49.0511 15.17V13.28H55.9631V15.17H49.0511ZM64.7531 23V18.41C64.7531 18.188 64.7411 17.906 64.7171 17.564C64.6931 17.216 64.6181 16.868 64.4921 16.52C64.3661 16.172 64.1591 15.881 63.8711 15.647C63.5891 15.413 63.1871 15.296 62.6651 15.296C62.4551 15.296 62.2301 15.329 61.9901 15.395C61.7501 15.461 61.5251 15.59 61.3151 15.782C61.1051 15.968 60.9311 16.244 60.7931 16.61C60.6611 16.976 60.5951 17.462 60.5951 18.068L59.1911 17.402C59.1911 16.634 59.3471 15.914 59.6591 15.242C59.9711 14.57 60.4391 14.027 61.0631 13.613C61.6931 13.199 62.4851 12.992 63.4391 12.992C64.2011 12.992 64.8221 13.121 65.3021 13.379C65.7821 13.637 66.1541 13.964 66.4181 14.36C66.6881 14.756 66.8801 15.17 66.9941 15.602C67.1081 16.028 67.1771 16.418 67.2011 16.772C67.2251 17.126 67.2371 17.384 67.2371 17.546V23H64.7531ZM58.1111 23V13.28H60.2891V16.502H60.5951V23H58.1111ZM73.9147 23.27C72.9187 23.27 72.0397 23.057 71.2777 22.631C70.5217 22.199 69.9277 21.608 69.4957 20.858C69.0697 20.102 68.8567 19.238 68.8567 18.266C68.8567 17.204 69.0667 16.28 69.4867 15.494C69.9067 14.708 70.4857 14.099 71.2237 13.667C71.9617 13.229 72.8107 13.01 73.7707 13.01C74.7907 13.01 75.6577 13.25 76.3717 13.73C77.0857 14.21 77.6137 14.885 77.9557 15.755C78.2977 16.625 78.4177 17.648 78.3157 18.824H75.8947V17.924C75.8947 16.934 75.7357 16.223 75.4177 15.791C75.1057 15.353 74.5927 15.134 73.8787 15.134C73.0447 15.134 72.4297 15.389 72.0337 15.899C71.6437 16.403 71.4487 17.15 71.4487 18.14C71.4487 19.046 71.6437 19.748 72.0337 20.246C72.4297 20.738 73.0087 20.984 73.7707 20.984C74.2507 20.984 74.6617 20.879 75.0037 20.669C75.3457 20.459 75.6067 20.156 75.7867 19.76L78.2347 20.462C77.8687 21.35 77.2897 22.04 76.4977 22.532C75.7117 23.024 74.8507 23.27 73.9147 23.27ZM70.6927 18.824V17.006H77.1367V18.824H70.6927ZM84.1459 23.27C82.9219 23.27 81.9319 22.994 81.1759 22.442C80.4259 21.884 79.9699 21.098 79.8079 20.084L82.3099 19.706C82.4119 20.162 82.6369 20.519 82.9849 20.777C83.3389 21.035 83.7859 21.164 84.3259 21.164C84.7699 21.164 85.1119 21.08 85.3519 20.912C85.5919 20.738 85.7119 20.498 85.7119 20.192C85.7119 20 85.6639 19.847 85.5679 19.733C85.4719 19.613 85.2559 19.496 84.9199 19.382C84.5899 19.268 84.0739 19.118 83.3719 18.932C82.5799 18.728 81.9469 18.5 81.4729 18.248C80.9989 17.996 80.6569 17.696 80.4469 17.348C80.2369 16.994 80.1319 16.568 80.1319 16.07C80.1319 15.446 80.2909 14.906 80.6089 14.45C80.9269 13.988 81.3739 13.634 81.9499 13.388C82.5319 13.136 83.2159 13.01 84.0019 13.01C84.7639 13.01 85.4389 13.127 86.0269 13.361C86.6149 13.595 87.0889 13.928 87.4489 14.36C87.8149 14.792 88.0399 15.302 88.1239 15.89L85.6219 16.34C85.5799 15.98 85.4239 15.695 85.1539 15.485C84.8839 15.275 84.5179 15.152 84.0559 15.116C83.6059 15.086 83.2429 15.146 82.9669 15.296C82.6969 15.446 82.5619 15.662 82.5619 15.944C82.5619 16.112 82.6189 16.253 82.7329 16.367C82.8529 16.481 83.0959 16.598 83.4619 16.718C83.8339 16.838 84.3979 16.994 85.1539 17.186C85.8919 17.378 86.4829 17.603 86.9269 17.861C87.3769 18.113 87.7039 18.419 87.9079 18.779C88.1119 19.133 88.2139 19.562 88.2139 20.066C88.2139 21.062 87.8539 21.845 87.1339 22.415C86.4139 22.985 85.4179 23.27 84.1459 23.27ZM93.9896 23.27C92.7656 23.27 91.7756 22.994 91.0196 22.442C90.2696 21.884 89.8136 21.098 89.6516 20.084L92.1536 19.706C92.2556 20.162 92.4806 20.519 92.8286 20.777C93.1826 21.035 93.6296 21.164 94.1696 21.164C94.6136 21.164 94.9556 21.08 95.1956 20.912C95.4356 20.738 95.5556 20.498 95.5556 20.192C95.5556 20 95.5076 19.847 95.4116 19.733C95.3156 19.613 95.0996 19.496 94.7636 19.382C94.4336 19.268 93.9176 19.118 93.2156 18.932C92.4236 18.728 91.7906 18.5 91.3166 18.248C90.8426 17.996 90.5006 17.696 90.2906 17.348C90.0806 16.994 89.9756 16.568 89.9756 16.07C89.9756 15.446 90.1346 14.906 90.4526 14.45C90.7706 13.988 91.2176 13.634 91.7936 13.388C92.3756 13.136 93.0596 13.01 93.8456 13.01C94.6076 13.01 95.2826 13.127 95.8706 13.361C96.4586 13.595 96.9326 13.928 97.2926 14.36C97.6586 14.792 97.8836 15.302 97.9676 15.89L95.4656 16.34C95.4236 15.98 95.2676 15.695 94.9976 15.485C94.7276 15.275 94.3616 15.152 93.8996 15.116C93.4496 15.086 93.0866 15.146 92.8106 15.296C92.5406 15.446 92.4056 15.662 92.4056 15.944C92.4056 16.112 92.4626 16.253 92.5766 16.367C92.6966 16.481 92.9396 16.598 93.3056 16.718C93.6776 16.838 94.2416 16.994 94.9976 17.186C95.7356 17.378 96.3266 17.603 96.7706 17.861C97.2206 18.113 97.5476 18.419 97.7516 18.779C97.9556 19.133 98.0576 19.562 98.0576 20.066C98.0576 21.062 97.6976 21.845 96.9776 22.415C96.2576 22.985 95.2616 23.27 93.9896 23.27Z" fill="#F97316"/>
<path d="M137.907 7C135.627 7 132.907 7.86667 132.907 12V20C132.907 24.1333 135.627 25 137.907 25C140.187 25 142.907 24.1333 142.907 20V12C142.907 7.86667 140.187 7 137.907 7ZM124.093 7C121.813 7 119.093 7.86667 119.093 12V20C119.093 24.1333 121.813 25 124.093 25C126.373 25 129.093 24.1333 129.093 20V12C129.093 7.86667 126.373 7 124.093 7ZM132.907 15H129.093V17H132.907V15ZM145 20.3333C144.453 20.3333 144 19.88 144 19.3333V12.6667C144 12.12 144.453 11.6667 145 11.6667C145.547 11.6667 146 12.12 146 12.6667V19.3333C146 19.88 145.547 20.3333 145 20.3333ZM117 20.3333C116.453 20.3333 116 19.88 116 19.3333V12.6667C116 12.12 116.453 11.6667 117 11.6667C117.547 11.6667 118 12.12 118 12.6667V19.3333C118 19.88 117.547 20.3333 117 20.3333Z" fill="#F97316"/>
</svg>
